# xmcd
#
# Track frame offsets:
#	150
#	17150
#	34057
#	52528
#	70670
#	88314
#	110513
#	124860
#	141552
#	160166
#	176333
#	193429
#	208381
#
# Disc length: 2985 seconds
#
# Revision: 1
# Processed by: cddbd v1.5.2PL0 Copyright (c) Steve Scherf et al.
# Submitted via: audiograbber 1.83.01
#
DISCID=be0ba70d
DTITLE=Aaron Tippin - Now and Then
DYEAR=2006
DGENRE=Country
TTITLE0=Ready To Rock (In a Country Kinda Way)
TTITLE1=Could Not Stop Myself
TTITLE2=He Believed
TTITLE3=Whole Lotta Love On The Line
TTITLE4=Working Man's PH.D.
TTITLE5=The Call Of The Wild
TTITLE6=There Ain't Nothin' Wrong With The Radio
TTITLE7=That's As Close As I'll Get To Loving You
TTITLE8=I Got It Honest
TTITLE9=I Wouldn't Have It Any Other Way
TTITLE10=I Wonder How Far It Is Over You
TTITLE11=Honky-Tonk Superman
TTITLE12=My Blue Angel
EXTD=
EXTT0=
EXTT1=
EXTT2=
EXTT3=
EXTT4=
EXTT5=
EXTT6=
EXTT7=
EXTT8=
EXTT9=
EXTT10=
EXTT11=
EXTT12=
PLAYORDER=
